<svg height="512pt" viewBox="0 -12 512 512" width="512pt" xmlns="http://www.w3.org/2000/svg"><path d="m108.546875 487.898438h44.085937v-153.699219c0-30.417969 24.75-55.167969 55.167969-55.167969h96.398438c30.417969 0 55.167969 24.75 55.167969 55.167969v153.699219h44.085937v-265.101563h-294.90625zm0 0"/><path d="m304.199219 309.03125h-33.199219v42.300781h58.367188v-17.132812c0-13.878907-11.289063-25.167969-25.167969-25.167969zm0 0"/><path d="m182.632812 469.699219h18.203126v18.199219h-18.203126zm0 0"/><path d="m230.835938 469.699219h50.332031v18.199219h-50.332031zm0 0"/><path d="m337.59375 132.300781c-15.902344 28.714844-46.511719 48.199219-81.59375 48.199219s-65.691406-19.484375-81.59375-48.199219h-135.304688c-8.074218 0-15.824218-1.40625-23.035156-3.964843v344.5625c0 8.285156 6.71875 15 15 15h47.484375v-280.101563c0-8.28125 6.714844-15 15-15h324.902344c8.285156 0 15 6.71875 15 15v280.101563h47.480469c8.285156 0 15-6.714844 15-15v-344.5625c-7.207032 2.558593-14.957032 3.964843-23.03125 3.964843zm0 0"/><path d="m182.632812 439.699219h146.734376v-58.367188h-146.734376zm110.960938-39.792969c2.789062-2.789062 6.652344-4.386719 10.609375-4.386719 3.949219 0 7.8125 1.597657 10.601563 4.386719 2.789062 2.792969 4.390624 6.660156 4.390624 10.613281 0 3.949219-1.601562 7.808594-4.390624 10.597657-2.789063 2.800781-6.648438 4.402343-10.601563 4.402343-3.949219 0-7.820313-1.601562-10.609375-4.402343-2.789062-2.789063-4.390625-6.648438-4.390625-10.597657 0-3.953125 1.601563-7.820312 4.390625-10.613281zm-96.398438 0c2.789063-2.789062 6.660157-4.386719 10.609376-4.386719 3.949218 0 7.808593 1.597657 10.597656 4.386719 2.800781 2.792969 4.402344 6.660156 4.402344 10.613281 0 3.949219-1.601563 7.808594-4.402344 10.597657-2.789063 2.800781-6.660156 4.402343-10.597656 4.402343-3.949219 0-7.820313-1.601562-10.609376-4.402343-2.792968-2.789063-4.390624-6.648438-4.390624-10.597657 0-3.953125 1.597656-7.820312 4.390624-10.613281zm0 0"/><path d="m311.167969 469.699219h18.199219v18.199219h-18.199219zm0 0"/><path d="m207.800781 309.03125c-13.875 0-25.167969 11.289062-25.167969 25.167969v17.132812h58.367188v-42.300781zm0 0"/><path d="m256 150.5c34.847656 0 63.199219-28.351562 63.199219-63.199219v-72.300781c0-8.285156-6.714844-15-15-15h-96.398438c-8.285156 0-15 6.714844-15 15v72.300781c0 34.847657 28.351563 63.199219 63.199219 63.199219zm0 0"/><path d="m164.015625 102.300781c-.796875-4.886719-1.214844-9.898437-1.214844-15v-63.203125h-123.699219c-21.5625 0-39.101562 17.542969-39.101562 39.101563 0 21.558593 17.539062 39.101562 39.101562 39.101562zm0 0"/><path d="m472.898438 24.097656h-123.699219v63.203125c0 5.101563-.417969 10.113281-1.210938 15h124.910157c21.5625 0 39.101562-17.542969 39.101562-39.101562 0-21.558594-17.539062-39.101563-39.101562-39.101563zm0 0"/></svg>